<svg width="32" height="32" viewBox="0 0 32 32" fill="none" xmlns="http://www.w3.org/2000/svg">
<path d="M12 19.5C12.8284 19.5 13.5 18.8284 13.5 18C13.5 17.1716 12.8284 16.5 12 16.5C11.1716 16.5 10.5 17.1716 10.5 18C10.5 18.8284 11.1716 19.5 12 19.5Z" fill="#858584"/>
<path d="M20 19.5C20.8284 19.5 21.5 18.8284 21.5 18C21.5 17.1716 20.8284 16.5 20 16.5C19.1716 16.5 18.5 17.1716 18.5 18C18.5 18.8284 19.1716 19.5 20 19.5Z" fill="#858584"/>
<path fill-rule="evenodd" clip-rule="evenodd" d="M15.9927 9.99959C13.8248 9.98356 11.6678 10.3055 9.59912 10.9539C9.07211 11.119 8.51099 10.8257 8.34582 10.2987C8.18065 9.77168 8.47397 9.21056 9.00098 9.04539C11.2656 8.33563 13.6269 7.98281 16 7.99959C18.3732 7.98281 20.7345 8.33563 22.9991 9.04539C23.5261 9.21056 23.8195 9.77168 23.6543 10.2987C23.4891 10.8257 22.928 11.119 22.401 10.9539C20.3323 10.3055 18.1753 9.98356 16.0074 9.99959H15.9927Z" fill="#858584"/>
<path fill-rule="evenodd" clip-rule="evenodd" d="M8.34582 21.7009C8.51099 21.1739 9.07211 20.8806 9.59912 21.0458C11.6678 21.6941 13.8248 22.016 15.9927 22H16.0074C18.1753 22.016 20.3323 21.6941 22.401 21.0458C22.928 20.8806 23.4891 21.1739 23.6543 21.7009C23.8195 22.2279 23.5261 22.7891 22.9991 22.9542C20.7345 23.664 18.3732 24.0168 16 24C13.6269 24.0168 11.2656 23.664 9.00098 22.9542C8.47397 22.7891 8.18065 22.2279 8.34582 21.7009Z" fill="#858584"/>
<path fill-rule="evenodd" clip-rule="evenodd" d="M20.2199 4.81121C20.6504 4.56852 21.155 4.49267 21.6378 4.59812C22.9553 4.88366 24.2453 5.28424 25.4928 5.79524C25.7736 5.90352 26.0258 6.07496 26.2299 6.29638C26.4361 6.52018 26.5875 6.78885 26.672 7.08115L30.9078 21.2255C31.0183 21.594 31.0208 21.9865 30.9152 22.3563C30.8095 22.7262 30.6 23.0581 30.3115 23.3126L30.3064 23.3171C28.2389 25.1161 25.4375 26.4777 22.2556 27.2577C21.8136 27.3703 21.3462 27.3265 20.9327 27.1336C20.5209 26.9414 20.1881 26.6132 19.9903 26.2044L18.482 23.2129C18.2334 22.7197 18.4316 22.1184 18.9248 21.8698C19.4179 21.6211 20.0192 21.8194 20.2679 22.3125L21.7804 25.3125L21.7815 25.3147C24.7194 24.5943 27.2135 23.3571 28.9935 21.8083L29.6499 22.5627L28.9884 21.8128C28.9902 21.8113 28.9915 21.8092 28.9921 21.8069C28.9928 21.8046 28.9928 21.8022 28.9921 21.7999L24.756 7.65465C24.7525 7.65325 24.7489 7.65182 24.7454 7.65037C23.6025 7.18149 22.4205 6.81412 21.2132 6.55253L21.211 6.55205C21.208 6.55139 21.2049 6.55186 21.2022 6.55337C21.1998 6.55473 21.1979 6.55684 21.1968 6.55937L20.2119 9.53905C20.0386 10.0634 19.473 10.348 18.9486 10.1747C18.4242 10.0013 18.1396 9.43574 18.313 8.91136L19.3033 5.91516C19.4628 5.44707 19.7891 5.0541 20.2199 4.81121Z" fill="#858584"/>
<path fill-rule="evenodd" clip-rule="evenodd" d="M10.7977 6.55337C10.795 6.55186 10.7919 6.55139 10.7889 6.55205L10.7867 6.55252C9.57939 6.81412 8.39743 7.18148 7.25453 7.65037C7.251 7.65182 7.24746 7.65324 7.24392 7.65465L3.00794 21.7996C3.00725 21.8019 3.00715 21.8046 3.00781 21.8069C3.0084 21.809 3.00951 21.8108 3.01103 21.8123C4.79072 23.3593 7.28311 24.5949 10.2185 25.3147L10.2195 25.3125L11.732 22.3125C11.9807 21.8194 12.582 21.6211 13.0752 21.8698C13.5683 22.1184 13.7665 22.7197 13.5179 23.2129L12.0097 26.2045C11.8118 26.6132 11.479 26.9414 11.0672 27.1336C10.6537 27.3265 10.1863 27.3703 9.74432 27.2577C6.56239 26.4777 3.76102 25.1161 1.69355 23.3171L1.68837 23.3126C1.3999 23.0581 1.19044 22.7262 1.08476 22.3563C0.979102 21.9865 0.981619 21.5942 1.092 21.2258C1.09203 21.2257 1.09198 21.2259 1.092 21.2258L5.3279 7.08117C5.41243 6.78887 5.56377 6.52019 5.77003 6.29638C5.97408 6.07496 6.2263 5.90352 6.50711 5.79524C7.75497 5.28409 9.04529 4.88344 10.3632 4.59788C10.8456 4.49279 11.3499 4.5687 11.78 4.81121C12.2108 5.05409 12.537 5.44708 12.6965 5.91518L12.6995 5.92385L13.6869 8.91136C13.8603 9.43574 13.5757 10.0013 13.0513 10.1747C12.5269 10.348 11.9613 10.0634 11.788 9.53905L10.8031 6.55937C10.802 6.55684 10.8001 6.55473 10.7977 6.55337Z" fill="#858584"/>
<path d="M12 19.5C12.8284 19.5 13.5 18.8284 13.5 18C13.5 17.1716 12.8284 16.5 12 16.5C11.1716 16.5 10.5 17.1716 10.5 18C10.5 18.8284 11.1716 19.5 12 19.5Z" fill="#858584"/>
<path d="M20 19.5C20.8284 19.5 21.5 18.8284 21.5 18C21.5 17.1716 20.8284 16.5 20 16.5C19.1716 16.5 18.5 17.1716 18.5 18C18.5 18.8284 19.1716 19.5 20 19.5Z" fill="#858584"/>
<path fill-rule="evenodd" clip-rule="evenodd" d="M15.9927 9.99959C13.8248 9.98356 11.6678 10.3055 9.59912 10.9539C9.07211 11.119 8.51099 10.8257 8.34582 10.2987C8.18065 9.77168 8.47397 9.21056 9.00098 9.04539C11.2656 8.33563 13.6269 7.98281 16 7.99959C18.3732 7.98281 20.7345 8.33563 22.9991 9.04539C23.5261 9.21056 23.8195 9.77168 23.6543 10.2987C23.4891 10.8257 22.928 11.119 22.401 10.9539C20.3323 10.3055 18.1753 9.98356 16.0074 9.99959H15.9927Z" fill="#858584"/>
<path fill-rule="evenodd" clip-rule="evenodd" d="M8.34582 21.7009C8.51099 21.1739 9.07211 20.8806 9.59912 21.0458C11.6678 21.6941 13.8248 22.016 15.9927 22H16.0074C18.1753 22.016 20.3323 21.6941 22.401 21.0458C22.928 20.8806 23.4891 21.1739 23.6543 21.7009C23.8195 22.2279 23.5261 22.7891 22.9991 22.9542C20.7345 23.664 18.3732 24.0168 16 24C13.6269 24.0168 11.2656 23.664 9.00098 22.9542C8.47397 22.7891 8.18065 22.2279 8.34582 21.7009Z" fill="#858584"/>
<path fill-rule="evenodd" clip-rule="evenodd" d="M20.2199 4.81121C20.6504 4.56852 21.155 4.49267 21.6378 4.59812C22.9553 4.88366 24.2453 5.28424 25.4928 5.79524C25.7736 5.90352 26.0258 6.07496 26.2299 6.29638C26.4361 6.52018 26.5875 6.78885 26.672 7.08115L30.9078 21.2255C31.0183 21.594 31.0208 21.9865 30.9152 22.3563C30.8095 22.7262 30.6 23.0581 30.3115 23.3126L30.3064 23.3171C28.2389 25.1161 25.4375 26.4777 22.2556 27.2577C21.8136 27.3703 21.3462 27.3265 20.9327 27.1336C20.5209 26.9414 20.1881 26.6132 19.9903 26.2044L18.482 23.2129C18.2334 22.7197 18.4316 22.1184 18.9248 21.8698C19.4179 21.6211 20.0192 21.8194 20.2679 22.3125L21.7804 25.3125L21.7815 25.3147C24.7194 24.5943 27.2135 23.3571 28.9935 21.8083L29.6499 22.5627L28.9884 21.8128C28.9902 21.8113 28.9915 21.8092 28.9921 21.8069C28.9928 21.8046 28.9928 21.8022 28.9921 21.7999L24.756 7.65465C24.7525 7.65325 24.7489 7.65182 24.7454 7.65037C23.6025 7.18149 22.4205 6.81412 21.2132 6.55253L21.211 6.55205C21.208 6.55139 21.2049 6.55186 21.2022 6.55337C21.1998 6.55473 21.1979 6.55684 21.1968 6.55937L20.2119 9.53905C20.0386 10.0634 19.473 10.348 18.9486 10.1747C18.4242 10.0013 18.1396 9.43574 18.313 8.91136L19.3033 5.91516C19.4628 5.44707 19.7891 5.0541 20.2199 4.81121Z" fill="#858584"/>
<path fill-rule="evenodd" clip-rule="evenodd" d="M10.7977 6.55337C10.795 6.55186 10.7919 6.55139 10.7889 6.55205L10.7867 6.55252C9.57939 6.81412 8.39743 7.18148 7.25453 7.65037C7.251 7.65182 7.24746 7.65324 7.24392 7.65465L3.00794 21.7996C3.00725 21.8019 3.00715 21.8046 3.00781 21.8069C3.0084 21.809 3.00951 21.8108 3.01103 21.8123C4.79072 23.3593 7.28311 24.5949 10.2185 25.3147L10.2195 25.3125L11.732 22.3125C11.9807 21.8194 12.582 21.6211 13.0752 21.8698C13.5683 22.1184 13.7665 22.7197 13.5179 23.2129L12.0097 26.2045C11.8118 26.6132 11.479 26.9414 11.0672 27.1336C10.6537 27.3265 10.1863 27.3703 9.74432 27.2577C6.56239 26.4777 3.76102 25.1161 1.69355 23.3171L1.68837 23.3126C1.3999 23.0581 1.19044 22.7262 1.08476 22.3563C0.979102 21.9865 0.981619 21.5942 1.092 21.2258C1.09203 21.2257 1.09198 21.2259 1.092 21.2258L5.3279 7.08117C5.41243 6.78887 5.56377 6.52019 5.77003 6.29638C5.97408 6.07496 6.2263 5.90352 6.50711 5.79524C7.75497 5.28409 9.04529 4.88344 10.3632 4.59788C10.8456 4.49279 11.3499 4.5687 11.78 4.81121C12.2108 5.05409 12.537 5.44708 12.6965 5.91518L12.6995 5.92385L13.6869 8.91136C13.8603 9.43574 13.5757 10.0013 13.0513 10.1747C12.5269 10.348 11.9613 10.0634 11.788 9.53905L10.8031 6.55937C10.802 6.55684 10.8001 6.55473 10.7977 6.55337Z" fill="#858584"/>
</svg>
